<svg version="1" xmlns="http://www.w3.org/2000/svg" width="341.333" height="341.333" viewBox="0 0 256.000000 256.000000"><path d="M114 1.1c-20.5 2.3-40.2 9.6-58 21.4-9.6 6.4-27.1 23.9-33.5 33.5C5.8 81.3-2 111.2.9 139.3c3.4 32 14.9 56.5 37.1 78.7 24.9 24.9 54.8 37.4 90 37.4 34.8 0 65.5-12.7 90.1-37.3 24.6-24.6 37.3-55.3 37.3-90.1 0-35.2-12.5-65.1-37.4-90-15.3-15.3-30.4-24.7-49.4-30.9C149 .7 132.8-1 114 1.1zM88.2 69.7c23 23 23.3 23.4 20.2 29.4-1 2-1.3 3.8-.7 5.4.8 2.4 20.8 21.5 22.5 21.5 1 0 17.9-15.6 19.1-17.7.5-.8.9-5.8 1-11.1.2-8.7.5-10.4 3.4-16.5 6.4-13.5 21.4-25.2 35.6-27.8 11.3-2 22.5 4.2 24.3 13.6 2 10.7-1.6 22.2-10.3 32.9-9.5 11.8-20.3 17-35.2 17.2h-9.4l-8.8 9.5c-4.8 5.2-8.8 9.7-8.9 10.1 0 .4 13.2 12.9 29.3 27.9 16 15 29.6 27.9 30 28.6.5.7.6 2.2.2 3.2-.8 2.7-10.1 11.1-12.2 11.1-1.9 0-1.3.5-34.6-35.3l-23.1-24.8-2.6 2.8c-1.5 1.5-14.3 15.3-28.4 30.5C78.8 202.7 73.4 208 71.3 208c-1.8 0-4.2-1.6-7.5-4.9-8-8-8.9-6.6 25.7-38.7 16.5-15.3 30-28.2 30-28.6 0-1.4-18.8-21-20.9-21.8-1.3-.5-3.4-.2-5.5.6-7 2.9-7 2.9-29.8-19.8C51.2 82.7 42 72.8 42 71.7c0-4.9 3.4-2.7 18 11.8 13.4 13.3 17 15.9 17 12.2 0-.7-6.3-7.5-14-15.2C49.5 67 47.2 63.6 50.6 62.3c1.1-.4 6 3.9 16.4 14.2 8.2 8.1 15.3 14.4 15.9 14 2.6-1.5.3-4.6-13-18.1-9.9-10-14-14.7-13.6-15.8.4-.9 1.2-1.6 1.9-1.6s7.6 6.3 15.3 14C86.7 82.3 91 85.2 91 81.3c0-1-6.4-8.2-14.1-15.9-10.1-10.1-14-14.7-13.6-15.8.4-.9 1.2-1.6 1.9-1.6s11.1 9.8 23 21.7z"/></svg>