<?xml version="1.0" standalone="no"?>
<!DOCTYPE svg PUBLIC "-//W3C//DTD SVG 20010904//EN"
 "http://www.w3.org/TR/2001/REC-SVG-20010904/DTD/svg10.dtd">
<svg version="1.0" xmlns="http://www.w3.org/2000/svg"
 width="256.000000pt" height="256.000000pt" viewBox="0 0 256.000000 256.000000"
 preserveAspectRatio="xMidYMid meet">
<metadata>
Created by potrace 1.11, written by Peter Selinger 2001-2013
</metadata>
<g transform="translate(0.000000,256.000000) scale(0.100000,-0.100000)"
fill="#000000" stroke="none">
<path d="M1140 2549 c-205 -23 -402 -96 -580 -214 -96 -64 -271 -239 -335
-335 -167 -253 -245 -552 -216 -833 34 -320 149 -565 371 -787 249 -249 548
-374 900 -374 348 0 655 127 901 373 246 246 373 553 373 901 0 352 -125 651
-374 900 -153 153 -304 247 -494 309 -196 64 -358 81 -546 60z m-258 -686
c230 -230 233 -234 202 -294 -10 -20 -13 -38 -7 -54 8 -24 208 -215 225 -215
10 0 179 156 191 177 5 8 9 58 10 111 2 87 5 104 34 165 64 135 214 252 356
278 113 20 225 -42 243 -136 20 -107 -16 -222 -103 -329 -95 -118 -203 -170
-352 -172 l-94 0 -88 -95 c-48 -52 -88 -97 -89 -101 0 -4 132 -129 293 -279
160 -150 296 -279 300 -286 5 -7 6 -22 2 -32 -8 -27 -101 -111 -122 -111 -19
0 -13 -5 -346 353 l-231 248 -26 -28 c-15 -15 -143 -153 -284 -305 -208 -225
-262 -278 -283 -278 -18 0 -42 16 -75 49 -80 80 -89 66 257 387 165 153 300
282 300 286 0 14 -188 210 -209 218 -13 5 -34 2 -55 -6 -70 -29 -70 -29 -298
198 -121 121 -213 220 -213 231 0 49 34 27 180 -118 134 -133 170 -159 170
-122 0 7 -63 75 -140 152 -135 135 -158 169 -124 182 11 4 60 -39 164 -142 82
-81 153 -144 159 -140 26 15 3 46 -130 181 -99 100 -140 147 -136 158 4 9 12
16 19 16 7 0 76 -63 153 -140 132 -133 175 -162 175 -123 0 10 -64 82 -141
159 -101 101 -140 147 -136 158 4 9 12 16 19 16 7 0 111 -98 230 -217z"/>
</g>
</svg>
